<svg width="24" height="24" viewBox="0 0 24 24" fill="none" xmlns="http://www.w3.org/2000/svg">
<path fill-rule="evenodd" clip-rule="evenodd" d="M16.8801 6.38196C16.6229 3.9198 14.531 2.00009 11.9885 2.00009C10.6836 1.99462 9.42727 2.50777 8.50043 3.4261C7.6959 4.22325 7.19715 5.26869 7.07952 6.38196H7.07864C5.29724 6.38196 3.80058 7.68312 3.38011 9.94236L2.61922 15.8124C1.97155 20.1106 3.99286 22 7.94875 22H16.046C19.7043 22 21.8909 19.8703 21.4419 16.0483L20.6564 9.98171C20.1528 7.69437 18.6947 6.38196 16.9516 6.38196H16.8801ZM15.4138 6.38196C15.1653 4.72154 13.7261 3.44782 11.9855 3.44781C11.0644 3.44396 10.1797 3.80531 9.52708 4.45197C8.99719 4.97699 8.65567 5.65499 8.54594 6.38196H15.4138ZM7.07864 7.82969H16.9516C17.9739 7.82969 18.8719 8.63797 19.2244 10.2299L19.968 15.9973C20.4105 19.0658 18.9375 20.5523 16.046 20.5523H7.94875C4.81775 20.5523 3.55418 19.3711 4.06021 16.0122L4.81697 10.1666C5.10614 8.6189 6.01393 7.82969 7.07864 7.82969ZM14.8652 10.5164C15.267 10.5164 15.5927 10.8405 15.5927 11.2403C15.5927 11.6068 15.319 11.9096 14.9639 11.9576L14.8652 11.9642H14.8208C14.419 11.9642 14.0933 11.6401 14.0933 11.2403C14.0933 10.8738 14.367 10.571 14.7221 10.5231L14.8208 10.5164H14.8652ZM9.937 11.2403C9.937 10.8405 9.61129 10.5164 9.20951 10.5164H9.16512L9.0664 10.5231C8.71131 10.571 8.43762 10.8738 8.43762 11.2403C8.43762 11.6401 8.76333 11.9642 9.16512 11.9642H9.20951L9.30822 11.9576C9.66331 11.9096 9.937 11.6068 9.937 11.2403Z" fill="#200E32"/>
</svg>
