<svg width="90" height="36" viewBox="0 0 90 36" fill="none" xmlns="http://www.w3.org/2000/svg">
<path d="M2.39702 29V7.18182H10.174C11.8714 7.18182 13.2777 7.49077 14.3928 8.10866C15.5078 8.72656 16.3423 9.57173 16.8963 10.6442C17.4503 11.7095 17.7273 12.9098 17.7273 14.245C17.7273 15.5874 17.4467 16.7947 16.8857 17.8672C16.3317 18.9325 15.4936 19.7777 14.3714 20.4027C13.2564 21.0206 11.8537 21.3295 10.1634 21.3295H4.81534V18.5384H9.86506C10.9375 18.5384 11.8075 18.3537 12.4751 17.9844C13.1428 17.608 13.6328 17.0966 13.9453 16.4503C14.2578 15.804 14.4141 15.0689 14.4141 14.245C14.4141 13.4212 14.2578 12.6896 13.9453 12.0504C13.6328 11.4112 13.1392 10.9105 12.4645 10.5483C11.7969 10.1861 10.9162 10.005 9.82244 10.005H5.68892V29H2.39702ZM24.5162 7.18182V29H21.3308V7.18182H24.5162ZM33.5636 29.3622C32.5266 29.3622 31.5891 29.1705 30.7511 28.7869C29.913 28.3963 29.2489 27.8317 28.7589 27.093C28.2759 26.3544 28.0344 25.4489 28.0344 24.3764C28.0344 23.4531 28.212 22.6932 28.5671 22.0966C28.9222 21.5 29.4016 21.0277 30.0053 20.6797C30.609 20.3317 31.2837 20.0689 32.0295 19.8913C32.7752 19.7138 33.5352 19.5788 34.3093 19.4865C35.2894 19.3729 36.0849 19.2805 36.6957 19.2095C37.3065 19.1314 37.7504 19.0071 38.0273 18.8366C38.3043 18.6662 38.4428 18.3892 38.4428 18.0057V17.9311C38.4428 17.0007 38.18 16.2798 37.6545 15.7685C37.136 15.2571 36.3619 15.0014 35.332 15.0014C34.2596 15.0014 33.4144 15.2393 32.7965 15.7152C32.1857 16.1839 31.7631 16.706 31.5288 17.2812L28.5352 16.5994C28.8903 15.6051 29.4087 14.8026 30.0906 14.1918C30.7795 13.5739 31.5714 13.1264 32.4663 12.8494C33.3612 12.5653 34.3022 12.4233 35.2894 12.4233C35.9428 12.4233 36.6353 12.5014 37.3668 12.6577C38.1055 12.8068 38.7944 13.0838 39.4336 13.4886C40.0799 13.8935 40.609 14.4723 41.021 15.2251C41.4329 15.9709 41.6388 16.9403 41.6388 18.1335V29H38.5281V26.7628H38.4002C38.1942 27.1747 37.8853 27.5795 37.4734 27.9773C37.0614 28.375 36.5323 28.7053 35.886 28.968C35.2397 29.2308 34.4656 29.3622 33.5636 29.3622ZM34.256 26.8054C35.1367 26.8054 35.8896 26.6314 36.5146 26.2834C37.1467 25.9354 37.6261 25.4808 37.9528 24.9197C38.2866 24.3516 38.4535 23.7443 38.4535 23.098V20.9886C38.3398 21.1023 38.1197 21.2088 37.793 21.3082C37.4734 21.4006 37.1076 21.4822 36.6957 21.5533C36.2837 21.6172 35.8825 21.6776 35.4918 21.7344C35.1012 21.7841 34.7745 21.8267 34.5117 21.8622C33.8938 21.9403 33.3292 22.0717 32.8178 22.2564C32.3136 22.4411 31.9087 22.7074 31.6033 23.0554C31.305 23.3963 31.1559 23.8509 31.1559 24.419C31.1559 25.2074 31.4471 25.804 32.0295 26.2088C32.6119 26.6065 33.354 26.8054 34.256 26.8054ZM49.0669 19.2841V29H45.8816V12.6364H48.9391V15.2997H49.1415C49.5179 14.4332 50.1074 13.7372 50.91 13.2116C51.7196 12.6861 52.7388 12.4233 53.9675 12.4233C55.0826 12.4233 56.0591 12.6577 56.8972 13.1264C57.7353 13.5881 58.3851 14.277 58.8468 15.1932C59.3084 16.1094 59.5392 17.2422 59.5392 18.5916V29H56.3539V18.9751C56.3539 17.7891 56.0449 16.8622 55.427 16.1946C54.8091 15.5199 53.9604 15.1825 52.8809 15.1825C52.1422 15.1825 51.4853 15.3423 50.91 15.6619C50.3418 15.9815 49.8908 16.4503 49.557 17.0682C49.2303 17.679 49.0669 18.4176 49.0669 19.2841ZM71.4498 12.6364V15.1932H62.5115V12.6364H71.4498ZM64.9086 8.71591H68.0939V24.1953C68.0939 24.8132 68.1863 25.2784 68.3709 25.5909C68.5556 25.8963 68.7935 26.1058 69.0847 26.2195C69.383 26.326 69.7061 26.3793 70.0542 26.3793C70.3098 26.3793 70.5336 26.3615 70.7253 26.326C70.9171 26.2905 71.0662 26.2621 71.1728 26.2408L71.748 28.8722C71.5634 28.9432 71.3006 29.0142 70.9597 29.0852C70.6188 29.1634 70.1926 29.206 69.6813 29.2131C68.8432 29.2273 68.062 29.0781 67.3375 28.7656C66.6131 28.4531 66.0272 27.9702 65.5797 27.3168C65.1323 26.6634 64.9086 25.843 64.9086 24.8558V8.71591ZM76.9869 35.1364C76.511 35.1364 76.0778 35.0973 75.6871 35.0192C75.2965 34.9482 75.0053 34.87 74.8136 34.7848L75.5806 32.1747C76.163 32.331 76.6815 32.3984 77.136 32.3771C77.5906 32.3558 77.9918 32.1854 78.3398 31.8658C78.695 31.5462 79.0075 31.0241 79.2773 30.2997L79.6715 29.2131L73.6843 12.6364H77.0934L81.2376 25.3352H81.408L85.5522 12.6364H88.9719L82.2283 31.1839C81.9158 32.0362 81.5181 32.7571 81.0352 33.3466C80.5522 33.9432 79.9769 34.3906 79.3093 34.6889C78.6417 34.9872 77.8675 35.1364 76.9869 35.1364Z" fill="white"/>
<g clip-path="url(#clip0_3_293)">
<path d="M53.8524 6.294L52.0503 5.66341C51.3312 5.41169 50.5409 5.46214 49.8596 5.80313C49.1783 6.14423 48.6643 6.74668 48.4349 7.47319L47.9634 8.9663L47.4992 9.31438V6.19627C47.4986 5.78071 47.7065 5.39244 48.0525 5.16239L47.8121 4.80194C47.3455 5.11237 47.0653 5.63581 47.0659 6.19627V6.62536L46.7859 6.34529L46.4796 6.65159L47.0659 7.23797V11.9964L46.6327 11.7798V11.3342C46.6326 10.2446 46.1088 9.22131 45.2248 8.58417C44.3406 7.94713 43.2043 7.77378 42.1705 8.11848L41.149 8.45894C41.0601 8.48824 41 8.57116 41 8.66476C41 8.75837 41.0601 8.84129 41.149 8.87058L41.381 8.9479C42.4928 9.31755 43.5303 9.88172 44.4449 10.614L46.2807 12.0826C46.2931 12.0913 46.3065 12.0986 46.3206 12.1043L46.3192 12.1072L47.0659 12.4808V12.9968H47.4992V9.85591L48.2789 9.27102L48.2766 9.26806C48.2854 9.26287 48.294 9.25716 48.3022 9.25092C49.6738 7.88367 51.4602 7.00993 53.3816 6.76656L53.8077 6.71336C53.9075 6.70078 53.9854 6.62124 53.9961 6.52129C54.0068 6.42134 53.9472 6.32721 53.8524 6.294Z" fill="white"/>
<path d="M49.3336 1.83454L49.2321 0.203295C49.2256 0.100701 49.148 0.0167221 49.0462 0.00223206C48.9446 -0.0113061 48.8472 0.0476061 48.8121 0.14396L48.1115 2.10467C47.8495 2.8371 47.7156 3.6092 47.7158 4.38712V4.98216C47.7158 5.06974 47.7686 5.14875 47.8495 5.18227C47.9304 5.2157 48.0236 5.19719 48.0856 5.13531C48.9556 4.26496 49.4102 3.06292 49.3336 1.83454Z" fill="white"/>
<path d="M44.2354 2.87144L42.8021 2.39496C42.7281 2.37021 42.6464 2.38724 42.5884 2.43949C42.5304 2.49184 42.505 2.57128 42.5221 2.64753L42.7603 3.72234C43.1419 5.47606 44.6982 6.72379 46.493 6.71501H46.6327C46.7523 6.71501 46.8493 6.61803 46.8493 6.4984C46.8507 4.85246 45.7972 3.39086 44.2354 2.87144Z" fill="white"/>
<path d="M45.3005 5.76195C44.4705 5.25109 43.7901 4.53018 43.3279 3.6721L42.6447 2.40289C42.5503 2.44361 42.4986 2.54621 42.5222 2.64637L42.7604 3.72117C43.1415 5.47542 44.698 6.72368 46.4931 6.71501H46.6328C46.6821 6.71417 46.7295 6.69629 46.767 6.66435L45.3005 5.76195Z" fill="white"/>
<path d="M49.9291 7.29981C49.4727 7.62568 49.1119 8.06779 48.8842 8.58023L48.7841 8.80551C50.0844 7.69094 51.6827 6.98188 53.3816 6.76611L53.7943 6.71503H51.7552C51.1004 6.71482 50.4619 6.91937 49.9291 7.29981Z" fill="white"/>
<path d="M46.5296 12.2125L46.5253 12.1887C46.0945 9.81915 43.9381 8.16157 41.5374 8.3547L41.4366 8.36274L41.149 8.45867C41.0601 8.48796 41 8.57089 41 8.66449C41 8.75809 41.0601 8.84101 41.149 8.87021L41.381 8.94763C42.4928 9.31739 43.5303 9.88155 44.4449 10.614L46.2807 12.0826C46.2931 12.0912 46.3065 12.0985 46.3206 12.1042L46.3192 12.1071L46.5296 12.2125Z" fill="white"/>
</g>
<defs>
<clipPath id="clip0_3_293">
<rect width="12.9973" height="12.9966" fill="white" transform="translate(41)"/>
</clipPath>
</defs>
</svg>
